<svg width="30" height="30" viewBox="0 0 30 30" fill="none" xmlns="http://www.w3.org/2000/svg">
    <path d="M25.6 20.85v3.7c0 .65-.53 1.18-1.18 1.18-.52 0-.95-.34-1.1-.8-1.93-5.95-7.45-10.25-13.92-10.25-.46 0-.84-.38-.84-.84s.38-.84.84-.84c7.27 0 13.47 4.8 15.6 11.43.1.4-.13.82-.54.92-.06.02-.12.02-.18.02z" fill="#8A2BE2"/>
    <path d="M14.4 7.5c3.31 0 6 2.69 6 6s-2.69 6-6 6-6-2.69-6-6 2.69-6 6-6zm0 10.8c2.65 0 4.8-2.15 4.8-4.8s-2.15-4.8-4.8-4.8-4.8 2.15-4.8 4.8 2.15 4.8 4.8 4.8z" fill="#8A2BE2"/>
</svg>
